<svg width="280" height="291" viewBox="0 0 280 291" fill="none" xmlns="http://www.w3.org/2000/svg">
<mask id="path-1-inside-1_1_302" fill="white">
<path fill-rule="evenodd" clip-rule="evenodd" d="M161.717 0H219.528C221.381 10.2569 229.452 17.9768 239.128 17.9768C248.804 17.9768 256.875 10.2569 258.728 0H280V291H258.498C256.278 281.308 248.447 274.147 239.128 274.147C229.809 274.147 221.978 281.308 219.758 291H161.717C159.497 281.308 151.666 274.147 142.347 274.147C133.028 274.147 125.197 281.308 122.977 291H61.472C59.6189 280.743 51.5479 273.023 41.8721 273.023C32.1962 273.023 24.1252 280.743 22.2721 291H0V0H22.5022C24.7224 9.69191 32.5529 16.8533 41.8721 16.8533C51.1913 16.8533 59.0218 9.69191 61.242 0H122.977C125.197 9.69191 133.028 16.8533 142.347 16.8533C151.666 16.8533 159.497 9.69191 161.717 0Z"/>
</mask>
<path fill-rule="evenodd" clip-rule="evenodd" d="M161.717 0H219.528C221.381 10.2569 229.452 17.9768 239.128 17.9768C248.804 17.9768 256.875 10.2569 258.728 0H280V291H258.498C256.278 281.308 248.447 274.147 239.128 274.147C229.809 274.147 221.978 281.308 219.758 291H161.717C159.497 281.308 151.666 274.147 142.347 274.147C133.028 274.147 125.197 281.308 122.977 291H61.472C59.6189 280.743 51.5479 273.023 41.8721 273.023C32.1962 273.023 24.1252 280.743 22.2721 291H0V0H22.5022C24.7224 9.69191 32.5529 16.8533 41.8721 16.8533C51.1913 16.8533 59.0218 9.69191 61.242 0H122.977C125.197 9.69191 133.028 16.8533 142.347 16.8533C151.666 16.8533 159.497 9.69191 161.717 0Z" fill="#F3F3F3"/>
<path d="M219.528 0L220.512 -0.177788L220.364 -1H219.528V0ZM161.717 0V-1H160.92L160.742 -0.223295L161.717 0ZM258.728 0V-1H257.892L257.744 -0.17779L258.728 0ZM280 0H281V-1H280V0ZM280 291V292H281V291H280ZM258.498 291L257.523 291.223L257.701 292H258.498V291ZM219.758 291V292H220.555L220.733 291.223L219.758 291ZM161.717 291L160.742 291.223L160.92 292H161.717V291ZM122.977 291V292H123.774L123.952 291.223L122.977 291ZM61.472 291L60.4879 291.178L60.6365 292H61.472V291ZM22.2721 291V292H23.1077L23.2562 291.178L22.2721 291ZM0 291H-1V292H0V291ZM0 0V-1H-1V0H0ZM22.5022 0L23.4769 -0.223295L23.299 -1H22.5022V0ZM61.242 0V-1H60.4452L60.2672 -0.223295L61.242 0ZM122.977 0L123.952 -0.223295L123.774 -1H122.977V0ZM219.528 -1H161.717V1H219.528V-1ZM239.128 16.9768C230.024 16.9768 222.296 9.69543 220.512 -0.177788L218.544 0.177788C220.466 10.8183 228.88 18.9768 239.128 18.9768V16.9768ZM257.744 -0.17779C255.96 9.69543 248.232 16.9768 239.128 16.9768V18.9768C249.376 18.9768 257.79 10.8183 259.712 0.17779L257.744 -0.17779ZM280 -1H258.728V1H280V-1ZM281 291V0H279V291H281ZM258.498 292H280V290H258.498V292ZM239.128 275.147C247.898 275.147 255.387 281.899 257.523 291.223L259.473 290.777C257.168 280.717 248.997 273.147 239.128 273.147V275.147ZM220.733 291.223C222.869 281.899 230.358 275.147 239.128 275.147V273.147C229.259 273.147 221.088 280.717 218.783 290.777L220.733 291.223ZM161.717 292H219.758V290H161.717V292ZM142.347 275.147C151.117 275.147 158.606 281.899 160.742 291.223L162.692 290.777C160.387 280.717 152.216 273.147 142.347 273.147V275.147ZM123.952 291.223C126.088 281.899 133.577 275.147 142.347 275.147V273.147C132.478 273.147 124.307 280.717 122.002 290.777L123.952 291.223ZM61.472 292H122.977V290H61.472V292ZM41.8721 274.023C50.9761 274.023 58.7042 281.305 60.4879 291.178L62.4561 290.822C60.5337 280.182 52.1198 272.023 41.8721 272.023V274.023ZM23.2562 291.178C25.04 281.305 32.7681 274.023 41.8721 274.023V272.023C31.6244 272.023 23.2105 280.182 21.2881 290.822L23.2562 291.178ZM0 292H22.2721V290H0V292ZM-1 0V291H1V0H-1ZM22.5022 -1H0V1H22.5022V-1ZM41.8721 15.8533C33.1024 15.8533 25.6128 9.10063 23.4769 -0.223295L21.5274 0.223295C23.8319 10.2832 32.0033 17.8533 41.8721 17.8533V15.8533ZM60.2672 -0.223295C58.1313 9.10063 50.6417 15.8533 41.8721 15.8533V17.8533C51.7408 17.8533 59.9122 10.2832 62.2167 0.223295L60.2672 -0.223295ZM122.977 -1H61.242V1H122.977V-1ZM142.347 15.8533C133.577 15.8533 126.088 9.10063 123.952 -0.223295L122.002 0.223295C124.307 10.2832 132.478 17.8533 142.347 17.8533V15.8533ZM160.742 -0.223295C158.606 9.10063 151.117 15.8533 142.347 15.8533V17.8533C152.216 17.8533 160.387 10.2832 162.692 0.223295L160.742 -0.223295Z" fill="black" mask="url(#path-1-inside-1_1_302)"/>
</svg>
