<svg width="772" height="404" viewBox="0 0 772 404" fill="none" xmlns="http://www.w3.org/2000/svg">
<g opacity="0.3">
<mask id="path-1-inside-1_1_241" fill="white">
<path fill-rule="evenodd" clip-rule="evenodd" d="M662.01 416.135L706.631 409.878L684.344 250.928L815.458 308.032L833.103 267.64L717.252 217.184L892.15 81.1717L864.629 47.4207L676.341 193.846L649.161 0L604.54 6.25647L628.708 178.62L256.263 16.4084L238.618 56.8001L603.548 215.739L2.23458e-06 215.739L0 259.407L592.036 259.407L264.567 514.069L292.088 547.82L642.289 275.48L662.01 416.135Z"/>
</mask>
<path d="M706.631 409.878L706.744 410.679L707.544 410.566L707.432 409.766L706.631 409.878ZM662.01 416.135L661.21 416.247L661.322 417.047L662.123 416.935L662.01 416.135ZM684.344 250.928L684.667 250.187L683.344 249.611L683.544 251.04L684.344 250.928ZM815.458 308.032L815.135 308.773L815.875 309.095L816.198 308.356L815.458 308.032ZM833.103 267.64L833.843 267.964L834.167 267.223L833.425 266.899L833.103 267.64ZM717.252 217.184L716.756 216.546L715.682 217.381L716.929 217.925L717.252 217.184ZM892.15 81.1717L892.646 81.8097L893.299 81.302L892.776 80.661L892.15 81.1717ZM864.629 47.4207L865.255 46.91L864.756 46.2979L864.133 46.7827L864.629 47.4207ZM676.341 193.846L675.54 193.959L675.734 195.342L676.837 194.484L676.341 193.846ZM649.161 0L649.961 -0.112224L649.849 -0.912604L649.049 -0.800379L649.161 0ZM604.54 6.25647L604.428 5.45609L603.627 5.56831L603.74 6.36869L604.54 6.25647ZM628.708 178.62L628.385 179.361L629.708 179.937L629.508 178.508L628.708 178.62ZM256.263 16.4084L256.586 15.6674L255.846 15.345L255.522 16.0848L256.263 16.4084ZM238.618 56.8001L237.877 56.4765L237.553 57.218L238.295 57.541L238.618 56.8001ZM603.548 215.739V216.547L603.87 214.998L603.548 215.739ZM2.23458e-06 215.739L2.27544e-06 214.93H-0.808207L-0.808207 215.739H2.23458e-06ZM0 259.407H-0.808209L-0.808209 260.215H-8.33212e-08L0 259.407ZM592.036 259.407L592.532 260.045L594.392 258.599H592.036V259.407ZM264.567 514.069L264.071 513.431L263.418 513.939L263.941 514.58L264.567 514.069ZM292.088 547.82L291.462 548.331L291.961 548.943L292.584 548.458L292.088 547.82ZM642.289 275.48L643.089 275.368L642.895 273.985L641.793 274.842L642.289 275.48ZM706.519 409.078L661.898 415.334L662.123 416.935L706.744 410.679L706.519 409.078ZM683.544 251.04L705.831 409.991L707.432 409.766L685.145 250.816L683.544 251.04ZM815.78 307.291L684.667 250.187L684.022 251.669L815.135 308.773L815.78 307.291ZM832.362 267.317L814.717 307.709L816.198 308.356L833.843 267.964L832.362 267.317ZM716.929 217.925L832.78 268.381L833.425 266.899L717.575 216.443L716.929 217.925ZM891.653 80.5337L716.756 216.546L717.748 217.822L892.646 81.8097L891.653 80.5337ZM864.003 47.9315L891.523 81.6825L892.776 80.661L865.255 46.91L864.003 47.9315ZM676.837 194.484L865.125 48.0587L864.133 46.7827L675.845 193.208L676.837 194.484ZM648.361 0.112224L675.54 193.959L677.141 193.734L649.961 -0.112224L648.361 0.112224ZM604.652 7.05685L649.273 0.800379L649.049 -0.800379L604.428 5.45609L604.652 7.05685ZM629.508 178.508L605.34 6.14424L603.74 6.36869L627.907 178.732L629.508 178.508ZM255.94 17.1493L628.385 179.361L629.03 177.879L256.586 15.6674L255.94 17.1493ZM239.359 57.1236L257.004 16.7319L255.522 16.0848L237.877 56.4765L239.359 57.1236ZM603.87 214.998L238.941 56.0591L238.295 57.541L603.225 216.48L603.87 214.998ZM2.19371e-06 216.547L603.548 216.547V214.93L2.27544e-06 214.93L2.19371e-06 216.547ZM0.808209 259.407L0.808211 215.739H-0.808207L-0.808209 259.407H0.808209ZM592.036 258.599L8.33212e-08 258.599L-8.33212e-08 260.215L592.036 260.216V258.599ZM265.064 514.707L592.532 260.045L591.54 258.769L264.071 513.431L265.064 514.707ZM292.714 547.31L265.194 513.559L263.941 514.58L291.462 548.331L292.714 547.31ZM641.793 274.842L291.592 547.182L292.584 548.458L642.785 276.118L641.793 274.842ZM662.811 416.023L643.089 275.368L641.488 275.593L661.21 416.247L662.811 416.023Z" fill="url(#paint0_linear_1_241)" mask="url(#path-1-inside-1_1_241)"/>
</g>
<defs>
<linearGradient id="paint0_linear_1_241" x1="1070.47" y1="116.125" x2="-21.9118" y2="273.619" gradientUnits="userSpaceOnUse">
<stop stop-color="#6000F3"/>
<stop offset="1" stop-color="#26D6A5"/>
</linearGradient>
</defs>
</svg>
