<svg width="129" height="18" viewBox="0 0 129 18" fill="none" xmlns="http://www.w3.org/2000/svg">
<path d="M12.8791 17.218L4.6721 6.00736V17.218H0.296635V0.662198H5.49989L13.7068 11.8965V0.662198H18.0823V17.218H12.8791ZM28.3643 4.8248C32.3613 4.8248 35.8144 7.16627 35.8144 11.1633C35.8144 14.8766 32.7161 17.7856 28.3643 17.7856C24.0125 17.7856 20.9142 14.8766 20.9142 11.1633C20.9142 7.16627 24.3672 4.8248 28.3643 4.8248ZM28.3643 8.39613C26.5432 8.39613 25.0531 9.46043 25.0531 11.187C25.0531 12.8899 26.5432 14.238 28.3643 14.238C30.1854 14.238 31.6755 12.8899 31.6755 11.187C31.6755 9.46043 30.1854 8.39613 28.3643 8.39613ZM38.6605 17.218V0.662198H53.2296V4.49369H43.036V7.45008H52.3072V11.1397H43.036V17.218H38.6605ZM62.9018 8.44343C61.2699 8.44343 59.8981 9.60234 59.8981 11.66V17.218H55.972V5.39243H59.1886L59.5907 7.61564C60.4421 6.14927 62.074 4.8248 64.2263 4.8248C65.3616 4.8248 66.4732 5.22687 67.2536 5.67625L66.2603 9.36583C65.2433 8.8455 64.1553 8.44343 62.9018 8.44343ZM80.118 9.88616V13.4338C80.118 13.7649 80.2836 13.9542 80.6384 13.9542C80.9931 13.9542 81.5371 13.7413 81.8919 13.5284L82.7197 16.3902C81.679 17.0761 80.0944 17.6437 78.9355 17.6437C77.1616 17.6437 76.3338 16.3666 76.2865 14.8766L76.1919 14.8529C75.4588 16.3429 73.9214 17.6437 71.8874 17.6437C69.8771 17.6437 68.0559 16.2247 68.0559 14.0015C68.0559 11.589 70.2318 10.1936 72.6206 10.1936C73.6849 10.1936 75.104 10.4774 76.1919 10.9505V9.83885C76.1919 9.05836 75.6716 8.51439 74.6783 8.51439C73.614 8.51439 71.7219 9.01106 69.9007 9.67329L68.9074 6.00736C70.492 5.46339 73.1646 4.8248 74.9148 4.8248C78.3679 4.8248 80.118 6.50404 80.118 9.88616ZM73.4248 14.3562C74.631 14.3562 75.7899 13.4811 76.1919 12.4641C75.577 12.3222 74.7256 12.1567 73.9451 12.1567C72.9281 12.1567 72.053 12.4168 72.053 13.3392C72.053 13.9542 72.5733 14.3562 73.4248 14.3562ZM90.6835 8.44343C89.2644 8.44343 87.8453 9.60234 87.8453 11.5417V17.218H83.9192V5.39243H87.1358L87.5379 7.47374C88.3656 6.03101 89.9266 4.8248 92.0789 4.8248C94.1602 4.8248 95.6502 6.12562 96.407 7.87581C97.2348 6.24387 98.8195 4.8248 101.208 4.8248C104.307 4.8248 106.104 7.66295 106.104 10.7849V17.218H102.178V11.0924C102.178 9.64964 101.468 8.44343 99.8128 8.44343C98.3937 8.44343 96.9747 9.60234 96.9747 11.5417V17.218H93.0486V11.0924C93.0486 9.64964 92.339 8.44343 90.6835 8.44343ZM120.471 13.1027L121.417 16.6031C119.974 17.218 117.373 17.7856 115.623 17.7856C111.152 17.7856 108.243 14.8766 108.243 11.1633C108.243 7.16627 111.72 4.8248 115.623 4.8248C118.555 4.8248 121.299 6.50404 121.299 8.94011C121.299 11.4471 118.886 12.2749 116.261 12.2749C114.913 12.2749 113.47 12.0384 112.382 11.7546C112.642 13.4575 114.109 14.0488 115.883 14.0488C117.396 14.0488 119.123 13.623 120.471 13.1027ZM114.724 10.2173C115.883 10.2173 117.042 10.0044 117.042 9.08202C117.042 8.49074 116.474 8.11232 115.693 8.11232C114.274 8.11232 113.045 8.86915 112.572 10.0754C113.021 10.1463 113.896 10.2173 114.724 10.2173ZM123.571 15.6334C123.571 14.4981 124.564 13.5757 125.794 13.5757C127.024 13.5757 128.017 14.4981 128.017 15.6334C128.017 16.7686 127.024 17.691 125.794 17.691C124.564 17.691 123.571 16.7686 123.571 15.6334Z" fill="url(#paint0_linear_2120_155)"/>
<defs>
<linearGradient id="paint0_linear_2120_155" x1="-1.78467" y1="8.71802" x2="162.347" y2="8.71802" gradientUnits="userSpaceOnUse">
<stop stop-color="#56B390"/>
<stop offset="1" stop-color="#AF8AFF"/>
</linearGradient>
</defs>
</svg>
